<?xml version="1.0" encoding="UTF-8" standalone="no"?>
<svg
   xmlns:dc="http://purl.org/dc/elements/1.1/"
   xmlns:cc="http://creativecommons.org/ns#"
   xmlns:rdf="http://www.w3.org/1999/02/22-rdf-syntax-ns#"
   xmlns:svg="http://www.w3.org/2000/svg"
   xmlns="http://www.w3.org/2000/svg"
   xmlns:sodipodi="http://sodipodi.sourceforge.net/DTD/sodipodi-0.dtd"
   xmlns:inkscape="http://www.inkscape.org/namespaces/inkscape"
   viewBox="0 0 1000 114"
   version="1.1"
   id="svg213"
   sodipodi:docname="logo.svg"
   inkscape:version="0.92.1 r15371">
  <metadata
     id="metadata219">
    <rdf:RDF>
      <cc:Work
         rdf:about="">
        <dc:format>image/svg+xml</dc:format>
        <dc:type
           rdf:resource="http://purl.org/dc/dcmitype/StillImage" />
        <dc:title>logo</dc:title>
      </cc:Work>
    </rdf:RDF>
  </metadata>
  <defs
     id="defs217" />
  <sodipodi:namedview
     pagecolor="#ffffff"
     bordercolor="#666666"
     borderopacity="1"
     objecttolerance="10"
     gridtolerance="10"
     guidetolerance="10"
     inkscape:pageopacity="0"
     inkscape:pageshadow="2"
     inkscape:window-width="1920"
     inkscape:window-height="1017"
     id="namedview215"
     showgrid="false"
     inkscape:zoom="0.356"
     inkscape:cx="150.2809"
     inkscape:cy="57"
     inkscape:window-x="-8"
     inkscape:window-y="-8"
     inkscape:window-maximized="1"
     inkscape:current-layer="svg213" />
  <title
     id="title2">logo</title>
  <g
     id="Layer_2"
     data-name="Layer 2">
    <rect
       x="295"
       y="30.81178"
       width="38.33333"
       height="55.46581"
       stroke-width="7"
       stroke="#fff"
       stroke-linecap="round"
       stroke-linejoin="round"
       fill="#fff"
       id="rect4" />
    <rect
       x="399.17909"
       y="21.82892"
       width="21.81507"
       height="18.05416"
       stroke-width="7"
       stroke="#fff"
       stroke-linecap="round"
       stroke-linejoin="round"
       fill="#fff"
       id="rect6" />
    <rect
       x="671.59528"
       y="39.88308"
       width="22.79633"
       height="11.69863"
       stroke-width="7"
       stroke="#fff"
       stroke-linecap="round"
       stroke-linejoin="round"
       fill="#fff"
       id="rect8" />
    <rect
       x="531.08365"
       y="65.26995"
       width="22.90875"
       height="19.10644"
       stroke-width="7"
       stroke="#fff"
       stroke-linecap="round"
       stroke-linejoin="round"
       fill="#fff"
       id="rect10" />
    <rect
       x="549.33334"
       y="53.39998"
       width="22.13769"
       height="28.7426"
       stroke-width="7"
       stroke="#fff"
       stroke-linecap="round"
       stroke-linejoin="round"
       fill="#fff"
       id="rect12" />
    <rect
       x="430.5965"
       y="57"
       width="22.54039"
       height="29.27759"
       stroke-width="7"
       stroke="#fff"
       stroke-linecap="round"
       stroke-linejoin="round"
       fill="#fff"
       id="rect14" />
    <rect
       x="416.82511"
       y="46.68631"
       width="52.50822"
       height="43.047"
       stroke-width="7"
       stroke="#fff"
       stroke-linecap="round"
       stroke-linejoin="round"
       fill="#fff"
       id="rect16" />
  </g>
  <path
     inkscape:connector-curvature="0"
     d="m 164.58489,98.804844 v 0 h -24.81405 v 0 c -8.47556,0 -14.76535,-2.006301 -18.86838,-6.01835 v 0 0 c -4.10304,-4.012058 -6.1548,-10.191831 -6.1548,-18.538777 v 0 -37.4319 0 c 0,-8.346948 2.05176,-14.545288 6.1548,-18.59502 v 0 0 c 4.10303,-4.053669 10.39282,-6.080224 18.86838,-6.080224 v 0 h 24.81405 v 0 c 1.28941,0 2.22285,0.341415 2.79937,1.023684 v 0 0 c 0.5765,0.682267 0.86498,1.784694 0.86498,3.307281 v 0 14.567786 0 c 0,1.522587 -0.28848,2.625014 -0.86498,3.307281 v 0 0 c -0.57652,0.682268 -1.50996,1.023683 -2.79937,1.023683 v 0 h -20.44154 v 0 c -2.10402,0 -3.66436,0.502279 -4.68144,1.5074 v 0 0 c -1.01709,1.001185 -1.52564,2.504646 -1.52564,4.510951 v 0 28.646231 0 c 0,2.006305 0.50855,3.470397 1.52564,4.392833 v 0 0 c 1.01708,0.926374 2.57742,1.389283 4.68144,1.389283 v 0 h 20.44154 v 0 c 1.28941,0 2.22285,0.341413 2.79937,1.023682 v 0 0 c 0.5765,0.67889 0.86498,1.781319 0.86498,3.307282 v 0 14.32594 0 c 0,1.52257 -0.28848,2.625005 -0.86498,3.307269 v 0 0 c -0.57652,0.682272 -1.50996,1.023685 -2.79937,1.023685 z m 76.68595,-63.794532 v 41.042907 0 c 0,3.693695 -0.4577,7.043719 -1.37355,10.051212 v 0 0 c -0.91586,3.010864 -2.54272,5.579629 -4.88107,7.70574 v 0 0 c -2.34168,2.126112 -5.56403,3.791009 -9.66706,4.994673 v 0 0 c -4.1002,1.203666 -9.30253,1.805506 -15.608,1.805506 v 0 0 c -6.30832,0 -11.53016,-0.60184 -15.66503,-1.805506 v 0 0 c -4.1349,-1.203664 -7.37293,-2.868561 -9.71461,-4.994673 v 0 0 c -2.33835,-2.126111 -3.96522,-4.694876 -4.88107,-7.70574 v 0 0 c -0.91585,-3.007493 -1.37354,-6.357517 -1.37354,-10.051212 v 0 -41.042907 0 c 0,-3.689757 0.45769,-7.040348 1.37354,-10.05121 v 0 0 c 0.91585,-3.007489 2.54272,-5.594818 4.88107,-7.761987 v 0 0 c 2.34168,-2.167169 5.57971,-3.852871 9.71461,-5.056542 v 0 0 c 4.13487,-1.203669 9.35671,-1.805504 15.66503,-1.805504 v 0 0 c 6.30547,0 11.5078,0.601835 15.608,1.805504 v 0 0 c 4.10303,1.203671 7.32538,2.889373 9.66706,5.056542 v 0 0 c 2.33835,2.167169 3.96521,4.754498 4.88107,7.761987 v 0 0 c 0.91585,3.010862 1.37355,6.361453 1.37355,10.05121 z m -40.07512,4.330963 v 32.380983 0 c 0,1.604707 0.50855,2.948993 1.52563,4.032855 v 0 0 c 1.0171,1.083871 3.35686,1.625517 7.01981,1.625517 v 0 0 c 3.6596,0 5.99795,-0.541646 7.01504,-1.625517 v 0 0 c 1.01709,-1.083862 1.52562,-2.428148 1.52562,-4.032855 v 0 -32.380983 0 c 0,-1.522586 -0.50853,-2.82525 -1.52562,-3.909116 v 0 0 c -1.01709,-1.083866 -3.35544,-1.625518 -7.01504,-1.625518 v 0 0 c -3.66295,0 -6.00271,0.541652 -7.01981,1.625518 v 0 0 c -1.01708,1.083866 -1.52563,2.38653 -1.52563,3.909116 z m 108.41715,59.463569 v 0 h -51.77161 v 0 c -1.28942,0 -2.22094,-0.341413 -2.79462,-1.023685 v 0 0 c -0.5765,-0.682264 -0.86498,-1.784699 -0.86498,-3.307269 v 0 -78.002352 0 c 0,-1.522587 0.28848,-2.625014 0.86498,-3.307281 v 0 0 c 0.57368,-0.682269 1.5052,-1.023684 2.79462,-1.023684 v 0 h 15.76484 v 0 c 1.28941,0 2.22095,0.341415 2.7946,1.023684 v 0 0 c 0.57652,0.682267 0.86501,1.784694 0.86501,3.307281 v 0 59.581681 h 13.93503 v -19.494957 0 c 0,-1.525962 0.28849,-2.630638 0.865,-3.312907 v 0 0 c 0.57652,-0.682267 1.50995,-1.023682 2.79936,-1.023682 v 0 h 14.74777 v 0 c 1.28654,0 2.21808,0.341415 2.79461,1.023682 v 0 0 c 0.57649,0.682269 0.86498,1.786945 0.86498,3.312907 v 0 37.915628 0 c 0,1.52257 -0.28849,2.625005 -0.86498,3.307269 v 0 0 c -0.57653,0.682272 -1.50807,1.023685 -2.79461,1.023685 z m 70.68179,0 v 0 h -51.7716 v 0 c -1.2899,0 -2.22143,-0.341413 -2.79462,-1.023685 v 0 0 c -0.57697,-0.682264 -0.86499,-1.784699 -0.86499,-3.307269 v 0 -78.002352 0 c 0,-1.522587 0.28802,-2.625014 0.86499,-3.307281 v 0 0 c 0.57319,-0.682269 1.50472,-1.023684 2.79462,-1.023684 v 0 h 15.76484 v 0 c 1.28942,0 2.22097,0.341415 2.79462,1.023684 v 0 0 c 0.5765,0.682267 0.86499,1.784694 0.86499,3.307281 v 0 59.581681 h 13.93503 v -19.494957 0 c 0,-1.525962 0.28801,-2.630638 0.86501,-3.312907 v 0 0 c 0.5765,-0.682267 1.50946,-1.023682 2.79936,-1.023682 v 0 h 14.74775 v 0 c 1.2861,0 2.21764,0.341415 2.79461,1.023682 v 0 0 c 0.5765,0.682269 0.865,1.786945 0.865,3.312907 v 0 37.915628 0 c 0,1.52257 -0.2885,2.625005 -0.865,3.307269 v 0 0 c -0.57697,0.682272 -1.50851,1.023685 -2.79461,1.023685 z m 66.10492,0 v 0 h -47.19471 v 0 c -1.28989,0 -2.22143,-0.341413 -2.79461,-1.023685 v 0 0 c -0.57699,-0.682264 -0.86501,-1.784699 -0.86501,-3.307269 v 0 -78.002352 0 c 0,-1.522587 0.28802,-2.625014 0.86501,-3.307281 v 0 0 c 0.57318,-0.682269 1.50472,-1.023684 2.79461,-1.023684 v 0 h 47.19471 v 0 c 1.28609,0 2.21763,0.341415 2.79461,1.023684 v 0 0 c 0.57651,0.682267 0.86499,1.784694 0.86499,3.307281 v 0 14.084069 0 c 0,1.525961 -0.28848,2.630638 -0.86499,3.312905 v 0 0 c -0.57698,0.682268 -1.50852,1.023682 -2.79461,1.023682 v 0 h -28.07444 v 9.263764 h 19.83319 v 0 c 1.28942,0 2.22238,0.341414 2.79935,1.023681 v 0 0 c 0.57652,0.682268 0.86501,1.786944 0.86501,3.312906 v 0 12.880398 0 c 0,1.522588 -0.28849,2.625015 -0.86501,3.307281 v 0 0 c -0.57697,0.682268 -1.50993,1.023684 -2.79935,1.023684 v 0 h -19.83319 v 10.349311 h 28.07444 v 0 c 1.28609,0 2.21763,0.341421 2.79461,1.023688 v 0 0 c 0.57651,0.682267 0.86499,1.786938 0.86499,3.3129 v 0 14.084083 0 c 0,1.52257 -0.28848,2.625005 -0.86499,3.307269 v 0 0 c -0.57698,0.682272 -1.50852,1.023685 -2.79461,1.023685 z m 63.86446,0 v 0 h -24.81405 v 0 c -8.47556,0 -14.76535,-2.006301 -18.86836,-6.01835 v 0 0 c -4.10306,-4.012058 -6.15481,-10.191831 -6.15481,-18.538777 v 0 -37.4319 0 c 0,-8.346948 2.05175,-14.545288 6.15481,-18.59502 v 0 0 c 4.10301,-4.053669 10.3928,-6.080224 18.86836,-6.080224 v 0 h 24.81405 v 0 c 1.28941,0 2.22286,0.341415 2.79937,1.023684 v 0 0 c 0.57652,0.682267 0.86499,1.784694 0.86499,3.307281 v 0 14.567786 0 c 0,1.522587 -0.28847,2.625014 -0.86499,3.307281 v 0 0 c -0.57651,0.682268 -1.50996,1.023683 -2.79937,1.023683 v 0 h -20.44153 v 0 c -2.10402,0 -3.66437,0.502279 -4.68145,1.5074 v 0 0 c -1.01709,1.001185 -1.52563,2.504646 -1.52563,4.510951 v 0 28.646231 0 c 0,2.006305 0.50854,3.470397 1.52563,4.392833 v 0 0 c 1.01708,0.926374 2.57743,1.389283 4.68145,1.389283 v 0 h 20.44153 v 0 c 1.28941,0 2.22286,0.341413 2.79937,1.023682 v 0 0 c 0.57652,0.67889 0.86499,1.781319 0.86499,3.307282 v 0 14.32594 0 c 0,1.52257 -0.28847,2.625005 -0.86499,3.307269 v 0 0 c -0.57651,0.682272 -1.50996,1.023685 -2.79937,1.023685 z m 49.73316,0 v 0 h -16.47775 v 0 c -1.28942,0 -2.22286,-0.341413 -2.79937,-1.023685 v 0 0 c -0.57652,-0.682264 -0.865,-1.784699 -0.865,-3.307269 v 0 -59.103602 h -14.94737 v 0 c -1.28941,0 -2.22286,-0.341415 -2.79935,-1.023683 v 0 0 c -0.57651,-0.682267 -0.86501,-1.784694 -0.86501,-3.307281 v 0 -14.567786 0 c 0,-1.522587 0.2885,-2.625014 0.86501,-3.307281 v 0 0 c 0.57649,-0.682269 1.50994,-1.023684 2.79935,-1.023684 v 0 h 53.70123 v 0 c 1.28656,0 2.2181,0.341415 2.7946,1.023684 v 0 0 c 0.57651,0.682267 0.865,1.784694 0.865,3.307281 v 0 14.567786 0 c 0,1.522587 -0.28849,2.625014 -0.865,3.307281 v 0 0 c -0.5765,0.682268 -1.50804,1.023683 -2.7946,1.023683 v 0 H 563.6568 v 59.103602 0 c 0,1.52257 -0.28848,2.625005 -0.86499,3.307269 v 0 0 c -0.57652,0.682272 -1.50807,1.023685 -2.79461,1.023685 z m 77.49438,0 H 594.1656 v 0 c -1.28943,0 -2.22239,-0.341413 -2.79937,-1.023685 v 0 0 c -0.57651,-0.682264 -0.86499,-1.784699 -0.86499,-3.307269 v 0 -14.32594 0 c 0,-1.525963 0.28848,-2.628392 0.86499,-3.307282 v 0 0 c 0.57698,-0.682269 1.50994,-1.023682 2.79937,-1.023682 v 0 h 10.0663 V 35.370288 h -10.0663 v 0 c -1.28943,0 -2.22239,-0.341415 -2.79937,-1.023683 v 0 0 c -0.57651,-0.682267 -0.86499,-1.784694 -0.86499,-3.307281 v 0 -14.567786 0 c 0,-1.522587 0.28848,-2.625014 0.86499,-3.307281 v 0 0 c 0.57698,-0.682269 1.50994,-1.023684 2.79937,-1.023684 v 0 h 43.32598 v 0 c 1.2899,0 2.22143,0.341415 2.79461,1.023684 v 0 0 c 0.57698,0.682267 0.865,1.784694 0.865,3.307281 v 0 14.567786 0 c 0,1.522587 -0.28802,2.625014 -0.865,3.307281 v 0 0 c -0.57318,0.682268 -1.50471,1.023683 -2.79461,1.023683 v 0 h -9.86669 v 40.446698 h 9.86669 v 0 c 1.2899,0 2.22143,0.341413 2.79461,1.023682 v 0 0 c 0.57698,0.67889 0.865,1.781319 0.865,3.307282 v 0 14.32594 0 c 0,1.52257 -0.28802,2.625005 -0.865,3.307269 v 0 0 c -0.57318,0.682272 -1.50471,1.023685 -2.79461,1.023685 z m 78.2111,-63.794532 v 41.042907 0 c 0,3.693695 -0.45817,7.043719 -1.37355,10.051212 v 0 0 c -0.91586,3.010864 -2.54271,5.579629 -4.88108,7.70574 v 0 0 c -2.34166,2.126112 -5.56403,3.791009 -9.66705,4.994673 v 0 0 c -4.1002,1.203666 -9.30304,1.805506 -15.60801,1.805506 v 0 0 c -6.30879,0 -11.53014,-0.60184 -15.66505,-1.805506 v 0 0 c -4.13486,-1.203664 -7.37338,-2.868561 -9.71457,-4.994673 v 0 0 c -2.33836,-2.126111 -3.9657,-4.694876 -4.88107,-7.70574 v 0 0 c -0.91585,-3.007493 -1.37355,-6.357517 -1.37355,-10.051212 v 0 -41.042907 0 c 0,-3.689757 0.4577,-7.040348 1.37355,-10.05121 v 0 0 c 0.91537,-3.007489 2.54271,-5.594818 4.88107,-7.761987 v 0 0 c 2.34119,-2.167169 5.57971,-3.852871 9.71457,-5.056542 v 0 0 c 4.13491,-1.203669 9.35626,-1.805504 15.66505,-1.805504 v 0 0 c 6.30497,0 11.50781,0.601835 15.60801,1.805504 v 0 0 c 4.10302,1.203671 7.32539,2.889373 9.66705,5.056542 v 0 0 c 2.33837,2.167169 3.96522,4.754498 4.88108,7.761987 v 0 0 c 0.91538,3.010862 1.37355,6.361453 1.37355,10.05121 z m -40.07511,4.330963 v 32.380983 0 c 0,1.604707 0.50854,2.948993 1.52562,4.032855 v 0 0 c 1.01708,1.083871 3.35685,1.625517 7.0198,1.625517 v 0 0 c 3.65962,0 5.99797,-0.541646 7.01504,-1.625517 v 0 0 c 1.01709,-1.083862 1.52564,-2.428148 1.52564,-4.032855 v 0 -32.380983 0 c 0,-1.522586 -0.50855,-2.82525 -1.52564,-3.909116 v 0 0 c -1.01707,-1.083866 -3.35542,-1.625518 -7.01504,-1.625518 v 0 0 c -3.66295,0 -6.00272,0.541652 -7.0198,1.625518 v 0 0 c -1.01708,1.083866 -1.52562,2.38653 -1.52562,3.909116 z m 71.90185,59.463569 v 0 h -15.2563 v 0 c -1.28988,0 -2.22144,-0.341413 -2.79462,-1.023685 v 0 0 c -0.577,-0.682264 -0.86504,-1.784699 -0.86504,-3.307269 v 0 -78.002352 0 c 0,-1.522587 0.28804,-2.625014 0.86504,-3.307281 v 0 0 c 0.57318,-0.682269 1.50474,-1.023684 2.79462,-1.023684 v 0 h 10.57959 v 0 c 1.28605,0 2.38728,0.240173 3.30317,0.719954 v 0 0 c 0.91536,0.483717 1.81359,1.327412 2.69481,2.531081 v 0 l 19.73334,26.722609 v -25.642679 0 c 0,-1.522587 0.28803,-2.625014 0.86497,-3.307281 v 0 0 c 0.57652,-0.682269 1.50807,-1.023684 2.7946,-1.023684 v 0 h 15.25632 v 0 c 1.28944,0 2.2224,0.341415 2.79935,1.023684 v 0 0 c 0.57653,0.682267 0.86503,1.784694 0.86503,3.307281 v 0 78.002352 0 c 0,1.52257 -0.2885,2.625005 -0.86503,3.307269 v 0 0 c -0.57695,0.682272 -1.50991,1.023685 -2.79935,1.023685 v 0 H 772.2436 v 0 c -1.28653,0 -2.21808,-0.341413 -2.7946,-1.023685 v 0 0 c -0.57694,-0.682264 -0.86497,-1.784699 -0.86497,-3.307269 v 0 -14.809657 L 751.18901,54.752756 v 39.721134 0 c 0,1.52257 -0.28851,2.625005 -0.86499,3.307269 v 0 0 c -0.57366,0.682272 -1.50521,1.023685 -2.7946,1.023685 z m 91.63187,0 v 0 h -32.13808 v 0 c -1.28938,0 -2.22233,-0.341413 -2.79934,-1.023685 v 0 0 c -0.57653,-0.682264 -0.86503,-1.784699 -0.86503,-3.307269 v 0 -14.084083 0 c 0,-1.525962 0.2885,-2.630633 0.86503,-3.3129 v 0 0 c 0.57701,-0.682267 1.50996,-1.023688 2.79934,-1.023688 v 0 h 27.35676 v 0 c 0.88401,0 1.54659,-0.341412 1.9867,-1.023681 v 0 0 c 0.44054,-0.678891 0.66064,-1.500087 0.66064,-2.463586 v 0 0 c 0,-1.365097 -0.2201,-2.367968 -0.66064,-3.009175 v 0 0 c -0.44011,-0.641208 -1.10269,-1.002872 -1.9867,-1.085554 v 0 l -15.25629,-2.525458 v 0 c -4.74603,-0.802633 -8.55964,-2.649199 -11.43983,-5.540257 v 0 0 c -2.88297,-2.887123 -4.32501,-7.701803 -4.32501,-14.444046 v 0 -12.638539 0 c 0,-6.820986 1.865,-12.055265 5.59403,-15.703961 v 0 0 c 3.72945,-3.652071 8.88282,-5.478389 15.46063,-5.478389 v 0 h 28.47843 v 0 c 1.28986,0 2.22287,0.341415 2.79936,1.023684 v 0 0 c 0.57694,0.682267 0.86497,1.784694 0.86497,3.307281 v 0 14.325927 0 c 0,1.525963 -0.28803,2.630639 -0.86497,3.312907 v 0 0 c -0.57649,0.678892 -1.5095,1.018057 -2.79936,1.018057 v 0 h -23.69719 v 0 c -0.88065,0 -1.55885,0.341415 -2.03418,1.023682 v 0 0 c -0.47527,0.682267 -0.71286,1.545086 -0.71286,2.587329 v 0 0 c 0,1.046181 0.23759,1.929247 0.71286,2.649199 v 0 0 c 0.47533,0.723891 1.15353,1.124926 2.03418,1.20367 v 0 l 15.15649,2.407342 v 0 c 4.74659,0.802634 8.5773,2.6492 11.49217,5.540258 v 0 0 c 2.91533,2.887122 4.37246,7.701803 4.37246,14.444046 v 0 12.638541 0 c 0,6.820978 -1.88211,12.055262 -5.64627,15.703961 v 0 0 c -3.7608,3.652065 -8.89706,5.478387 -15.4083,5.478387 z"
     style="white-space:pre;fill:#ff0000;stroke-width:0.51703382"
     id="path2" />
</svg>
