<?xml version="1.0" encoding="UTF-8" standalone="no"?>
<svg
   xmlns:dc="http://purl.org/dc/elements/1.1/"
   xmlns:cc="http://creativecommons.org/ns#"
   xmlns:rdf="http://www.w3.org/1999/02/22-rdf-syntax-ns#"
   xmlns:svg="http://www.w3.org/2000/svg"
   xmlns="http://www.w3.org/2000/svg"
   xmlns:sodipodi="http://sodipodi.sourceforge.net/DTD/sodipodi-0.dtd"
   xmlns:inkscape="http://www.inkscape.org/namespaces/inkscape"
   id="Calque_2"
   data-name="Calque 2"
   viewBox="0 0 1000 114"
   version="1.1"
   sodipodi:docname="logo_right.svg"
   inkscape:version="0.92.1 r15371">
  <metadata
     id="metadata37">
    <rdf:RDF>
      <cc:Work
         rdf:about="">
        <dc:format>image/svg+xml</dc:format>
        <dc:type
           rdf:resource="http://purl.org/dc/dcmitype/StillImage" />
      </cc:Work>
    </rdf:RDF>
  </metadata>
  <defs
     id="defs35" />
  <sodipodi:namedview
     pagecolor="#ffffff"
     bordercolor="#666666"
     borderopacity="1"
     objecttolerance="10"
     gridtolerance="10"
     guidetolerance="10"
     inkscape:pageopacity="0"
     inkscape:pageshadow="2"
     inkscape:window-width="1920"
     inkscape:window-height="1017"
     id="namedview33"
     showgrid="false"
     inkscape:zoom="0.356"
     inkscape:cx="150.2809"
     inkscape:cy="57"
     inkscape:window-x="1912"
     inkscape:window-y="-8"
     inkscape:window-maximized="1"
     inkscape:current-layer="Calque_2" />
  <title
     id="title2">logo_right</title>
  <path
     inkscape:connector-curvature="0"
     d="m 574.70766,94.410775 v 0 h -15.0899 v 0 c -5.15415,0 -8.97908,-1.69416 -11.47422,-5.08202 v 0 0 c -2.49514,-3.387848 -3.74285,-8.606185 -3.74285,-15.654522 v 0 -31.60828 0 c 0,-7.048336 1.24771,-12.282344 3.74285,-15.702023 v 0 0 c 2.49514,-3.423003 6.32007,-5.134267 11.47422,-5.134267 v 0 h 15.0899 v 0 c 0.78412,0 1.35177,0.288298 1.70235,0.864418 v 0 0 c 0.35058,0.576121 0.52602,1.507033 0.52602,2.792738 v 0 12.301343 0 c 0,1.285704 -0.17544,2.216617 -0.52602,2.792738 v 0 0 c -0.35058,0.576121 -0.91823,0.864419 -1.70235,0.864419 v 0 h -12.43088 v 0 c -1.27951,0 -2.22837,0.424134 -2.84688,1.27288 v 0 0 c -0.61852,0.84542 -0.92776,2.114976 -0.92776,3.809142 v 0 24.189477 0 c 0,1.694165 0.30924,2.930474 0.92776,3.709401 v 0 0 c 0.61851,0.782251 1.56737,1.173139 2.84688,1.173139 v 0 h 12.43088 v 0 c 0.78412,0 1.35177,0.288298 1.70235,0.864419 v 0 0 c 0.35058,0.573271 0.52602,1.504184 0.52602,2.792738 v 0 12.09711 0 c 0,1.2857 -0.17544,2.21661 -0.52602,2.79273 v 0 0 c -0.35058,0.57613 -0.91823,0.86442 -1.70235,0.86442 z m 46.63419,-53.869428 v 34.657492 0 c 0,3.119033 -0.27833,5.947866 -0.83528,8.487455 v 0 0 c -0.55694,2.542434 -1.54627,4.711557 -2.96827,6.506881 v 0 0 c -1.42401,1.79533 -3.38359,3.2012 -5.87873,4.2176 v 0 0 c -2.49341,1.0164 -5.65705,1.52461 -9.49152,1.52461 v 0 0 c -3.83621,0 -7.01171,-0.50821 -9.52621,-1.52461 v 0 0 c -2.51449,-1.0164 -4.48362,-2.42227 -5.90763,-4.2176 v 0 0 c -1.422,-1.795324 -2.41133,-3.964447 -2.96827,-6.506881 v 0 0 c -0.55695,-2.539589 -0.83528,-5.368422 -0.83528,-8.487455 v 0 -34.657492 0 c 0,-3.115707 0.27833,-5.945016 0.83528,-8.487452 v 0 0 c 0.55694,-2.539586 1.54627,-4.724381 2.96827,-6.554384 v 0 0 c 1.42401,-1.830003 3.39314,-3.253444 5.90763,-4.269848 v 0 0 c 2.5145,-1.016405 5.69,-1.524607 9.52621,-1.524607 v 0 0 c 3.83447,0 6.99811,0.508202 9.49152,1.524607 v 0 0 c 2.49514,1.016404 4.45472,2.439845 5.87873,4.269848 v 0 0 c 1.422,1.830003 2.41133,4.014798 2.96827,6.554384 v 0 0 c 0.55695,2.542436 0.83528,5.371745 0.83528,8.487452 z m -24.37044,3.657156 v 27.34318 0 c 0,1.355048 0.30925,2.490191 0.92777,3.40543 v 0 0 c 0.6185,0.915239 2.04137,1.372621 4.26887,1.372621 v 0 0 c 2.22548,0 3.64747,-0.457382 4.26598,-1.372621 v 0 0 c 0.6185,-0.915239 0.92777,-2.050382 0.92777,-3.40543 v 0 -27.34318 0 c 0,-1.285703 -0.30927,-2.3857 -0.92777,-3.300939 v 0 0 c -0.61851,-0.915239 -2.0405,-1.372622 -4.26598,-1.372622 v 0 0 c -2.2275,0 -3.65037,0.457383 -4.26887,1.372622 v 0 0 c -0.61852,0.915239 -0.92777,2.015236 -0.92777,3.300939 z m 65.93053,50.212272 v 0 h -31.48329 v 0 c -0.78413,0 -1.35061,-0.28829 -1.69946,-0.86442 v 0 0 c -0.35059,-0.57612 -0.52603,-1.50703 -0.52603,-2.79273 v 0 -65.866806 0 c 0,-1.285705 0.17544,-2.216617 0.52603,-2.792738 v 0 0 c 0.34885,-0.57612 0.91533,-0.864418 1.69946,-0.864418 v 0 h 9.58689 v 0 c 0.78412,0 1.3506,0.288298 1.69946,0.864418 v 0 0 c 0.35058,0.576121 0.52602,1.507033 0.52602,2.792738 v 0 50.31202 h 8.47416 v -16.461952 0 c 0,-1.288554 0.17544,-2.221367 0.52602,-2.797487 v 0 0 c 0.35059,-0.576121 0.91822,-0.864419 1.70235,-0.864419 v 0 h 8.96839 v 0 c 0.78239,0 1.34887,0.288298 1.69946,0.864419 v 0 0 c 0.35058,0.57612 0.52601,1.508933 0.52601,2.797487 v 0 32.016738 0 c 0,1.2857 -0.17543,2.21661 -0.52601,2.79273 v 0 0 c -0.35059,0.57613 -0.91707,0.86442 -1.69946,0.86442 z m 42.98297,0 v 0 h -31.48332 v 0 c -0.7844,0 -1.35089,-0.28829 -1.69946,-0.86442 v 0 0 c -0.35087,-0.57612 -0.52602,-1.50703 -0.52602,-2.79273 v 0 -65.866806 0 c 0,-1.285705 0.17515,-2.216617 0.52602,-2.792738 v 0 0 c 0.34857,-0.57612 0.91506,-0.864418 1.69946,-0.864418 v 0 h 9.5869 v 0 c 0.78412,0 1.3506,0.288298 1.69946,0.864418 v 0 0 c 0.35059,0.576121 0.52602,1.507033 0.52602,2.792738 v 0 50.31202 h 8.47419 v -16.461952 0 c 0,-1.288554 0.17511,-2.221367 0.52598,-2.797487 v 0 0 c 0.35061,-0.576121 0.91795,-0.864419 1.70239,-0.864419 v 0 h 8.96838 v 0 c 0.78205,0 1.34857,0.288298 1.69943,0.864419 v 0 0 c 0.35062,0.57612 0.52604,1.508933 0.52604,2.797487 v 0 32.016738 0 c 0,1.2857 -0.17542,2.21661 -0.52604,2.79273 v 0 0 c -0.35086,0.57613 -0.91738,0.86442 -1.69943,0.86442 z m 40.19965,0 v 0 h -28.7 v 0 c -0.78444,0 -1.3509,-0.28829 -1.69949,-0.86442 v 0 0 c -0.35086,-0.57612 -0.52599,-1.50703 -0.52599,-2.79273 v 0 -65.866806 0 c 0,-1.285705 0.17513,-2.216617 0.52599,-2.792738 v 0 0 c 0.34859,-0.57612 0.91505,-0.864418 1.69949,-0.864418 v 0 h 28.7 v 0 c 0.78211,0 1.34857,0.288298 1.69943,0.864418 v 0 0 c 0.35062,0.576121 0.52604,1.507033 0.52604,2.792738 v 0 11.892881 0 c 0,1.288555 -0.17542,2.221367 -0.52604,2.797487 v 0 0 c -0.35086,0.576122 -0.91732,0.86442 -1.69943,0.86442 v 0 h -17.07263 v 7.822514 h 12.06095 v 0 c 0.78412,0 1.35146,0.288298 1.70232,0.864419 v 0 0 c 0.35062,0.576121 0.52605,1.508933 0.52605,2.797487 v 0 10.876477 0 c 0,1.285705 -0.17543,2.216617 -0.52605,2.792739 v 0 0 c -0.35086,0.57612 -0.9182,0.864418 -1.70232,0.864418 v 0 h -12.06095 v 8.739178 h 17.07263 v 0 c 0.78211,0 1.34857,0.288298 1.69943,0.864419 v 0 0 c 0.35062,0.576121 0.52604,1.508933 0.52604,2.797488 v 0 11.892879 0 c 0,1.2857 -0.17542,2.21661 -0.52604,2.79273 v 0 0 c -0.35086,0.57613 -0.91732,0.86442 -1.69943,0.86442 z m 38.83717,0 v 0 h -15.08988 v 0 c -5.15413,0 -8.97907,-1.69416 -11.47422,-5.08202 v 0 0 c -2.49513,-3.387848 -3.74286,-8.606185 -3.74286,-15.654522 v 0 -31.60828 0 c 0,-7.048336 1.24773,-12.282344 3.74286,-15.702023 v 0 0 c 2.49515,-3.423003 6.32009,-5.134267 11.47422,-5.134267 v 0 h 15.08988 v 0 c 0.78412,0 1.35178,0.288298 1.70239,0.864418 v 0 0 c 0.35055,0.576121 0.52598,1.507033 0.52598,2.792738 v 0 12.301343 0 c 0,1.285704 -0.17543,2.216617 -0.52598,2.792738 v 0 0 c -0.35061,0.576121 -0.91827,0.864419 -1.70239,0.864419 v 0 h -12.43088 v 0 c -1.27952,0 -2.22838,0.424134 -2.84689,1.27288 v 0 0 c -0.61845,0.84542 -0.9277,2.114976 -0.9277,3.809142 v 0 24.189477 0 c 0,1.694165 0.30925,2.930474 0.9277,3.709401 v 0 0 c 0.61851,0.782251 1.56737,1.173139 2.84689,1.173139 v 0 h 12.43088 v 0 c 0.78412,0 1.35178,0.288298 1.70239,0.864419 v 0 0 c 0.35055,0.573271 0.52598,1.504184 0.52598,2.792738 v 0 12.09711 0 c 0,1.2857 -0.17543,2.21661 -0.52598,2.79273 v 0 0 c -0.35061,0.57613 -0.91827,0.86442 -1.70239,0.86442 z m 30.2437,0 v 0 h -10.0204 v 0 c -0.78414,0 -1.35178,-0.28829 -1.7024,-0.86442 v 0 0 c -0.35055,-0.57612 -0.52598,-1.50703 -0.52598,-2.79273 v 0 -49.908306 h -9.08981 v 0 c -0.78412,0 -1.35177,-0.288298 -1.70232,-0.864419 v 0 0 c -0.35061,-0.576121 -0.52605,-1.507034 -0.52605,-2.792738 v 0 -12.301343 0 c 0,-1.285705 0.17544,-2.216617 0.52605,-2.792738 v 0 0 c 0.35055,-0.57612 0.9182,-0.864418 1.70232,-0.864418 v 0 h 32.65676 v 0 c 0.78236,0 1.34882,0.288298 1.69944,0.864418 v 0 0 c 0.35061,0.576121 0.52605,1.507033 0.52605,2.792738 v 0 12.301343 0 c 0,1.285704 -0.17544,2.216617 -0.52605,2.792738 v 0 0 c -0.35062,0.576121 -0.91708,0.864419 -1.69944,0.864419 v 0 h -9.0927 v 49.908306 0 c 0,1.2857 -0.17542,2.21661 -0.52604,2.79273 v 0 0 c -0.35055,0.57613 -0.91707,0.86442 -1.69943,0.86442 z m 47.12579,0 h -26.34731 v 0 c -0.78413,0 -1.35146,-0.28829 -1.70239,-0.86442 v 0 0 c -0.35055,-0.57612 -0.52598,-1.50703 -0.52598,-2.79273 v 0 -12.09711 0 c 0,-1.288554 0.17543,-2.219467 0.52598,-2.792738 v 0 0 c 0.35093,-0.576121 0.91826,-0.864419 1.70239,-0.864419 v 0 h 6.1215 V 40.845319 h -6.1215 v 0 c -0.78413,0 -1.35146,-0.288298 -1.70239,-0.864419 v 0 0 c -0.35055,-0.576121 -0.52598,-1.507034 -0.52598,-2.792738 v 0 -12.301343 0 c 0,-1.285705 0.17543,-2.216617 0.52598,-2.792738 v 0 0 c 0.35093,-0.57612 0.91826,-0.864418 1.70239,-0.864418 v 0 h 26.34731 v 0 c 0.78444,0 1.3509,0.288298 1.6995,0.864418 v 0 0 c 0.35086,0.576121 0.52604,1.507033 0.52604,2.792738 v 0 12.301343 0 c 0,1.285704 -0.17518,2.216617 -0.52604,2.792738 v 0 0 c -0.3486,0.576121 -0.91506,0.864419 -1.6995,0.864419 v 0 h -6.00007 v 34.154039 h 6.00007 v 0 c 0.78444,0 1.3509,0.288298 1.6995,0.864419 v 0 0 c 0.35086,0.573271 0.52604,1.504184 0.52604,2.792738 v 0 12.09711 0 c 0,1.2857 -0.17518,2.21661 -0.52604,2.79273 v 0 0 c -0.3486,0.57613 -0.91506,0.86442 -1.6995,0.86442 z m 47.56169,-53.869428 v 34.657492 0 c 0,3.119033 -0.2786,5.947866 -0.8353,8.487455 v 0 0 c -0.55695,2.542434 -1.54628,4.711557 -2.96824,6.506881 v 0 0 c -1.42405,1.79533 -3.38357,3.2012 -5.87872,4.2176 v 0 0 c -2.49344,1.0164 -5.65738,1.52461 -9.49153,1.52461 v 0 0 c -3.83653,0 -7.01174,-0.50821 -9.5262,-1.52461 v 0 0 c -2.51453,-1.0164 -4.48395,-2.42227 -5.90767,-4.2176 v 0 0 c -1.42196,-1.795324 -2.41161,-3.964447 -2.96824,-6.506881 v 0 0 c -0.55696,-2.539589 -0.83531,-5.368422 -0.83531,-8.487455 v 0 -34.657492 0 c 0,-3.115707 0.27835,-5.945016 0.83531,-8.487452 v 0 0 c 0.55663,-2.539586 1.54628,-4.724381 2.96824,-6.554384 v 0 0 c 1.42372,-1.830003 3.39314,-3.253444 5.90767,-4.269848 v 0 0 c 2.51446,-1.016405 5.68967,-1.524607 9.5262,-1.524607 v 0 0 c 3.83415,0 6.99809,0.508202 9.49153,1.524607 v 0 0 c 2.49515,1.016404 4.45467,2.439845 5.87872,4.269848 v 0 0 c 1.42196,1.830003 2.41129,4.014798 2.96824,6.554384 v 0 0 c 0.5567,2.542436 0.8353,5.371745 0.8353,8.487452 z m -24.37047,3.657156 v 27.34318 0 c 0,1.355048 0.30926,2.490191 0.92778,3.40543 v 0 0 c 0.6185,0.915239 2.04141,1.372621 4.2689,1.372621 v 0 0 c 2.22549,0 3.64745,-0.457382 4.26597,-1.372621 v 0 0 c 0.6185,-0.915239 0.92776,-2.050382 0.92776,-3.40543 v 0 -27.34318 0 c 0,-1.285703 -0.30926,-2.3857 -0.92776,-3.300939 v 0 0 c -0.61852,-0.915239 -2.04048,-1.372622 -4.26597,-1.372622 v 0 0 c -2.22749,0 -3.6504,0.457383 -4.2689,1.372622 v 0 0 c -0.61852,0.915239 -0.92778,2.015236 -0.92778,3.300939 z m 43.72491,50.212272 v 0 h -9.27763 v 0 c -0.78444,0 -1.3509,-0.28829 -1.6995,-0.86442 v 0 0 c -0.35086,-0.57612 -0.52598,-1.50703 -0.52598,-2.79273 v 0 -65.866806 0 c 0,-1.285705 0.17512,-2.216617 0.52598,-2.792738 v 0 0 c 0.3486,-0.57612 0.91506,-0.864418 1.6995,-0.864418 v 0 h 6.43364 v 0 c 0.78212,0 1.45174,0.202805 2.00869,0.607942 v 0 0 c 0.5567,0.408462 1.10296,1.120895 1.63876,2.1373 v 0 l 12.00026,22.565128 v -21.653214 0 c 0,-1.285705 0.17518,-2.216617 0.52605,-2.792738 v 0 0 c 0.35055,-0.57612 0.91706,-0.864418 1.69942,-0.864418 v 0 h 9.27764 v 0 c 0.78413,0 1.35146,0.288298 1.70239,0.864418 v 0 0 c 0.35056,0.576121 0.52598,1.507033 0.52598,2.792738 v 0 65.866806 0 c 0,1.2857 -0.17542,2.21661 -0.52598,2.79273 v 0 0 c -0.35093,0.57613 -0.91826,0.86442 -1.70239,0.86442 v 0 h -9.27764 v 0 c -0.78236,0 -1.34887,-0.28829 -1.69942,-0.86442 v 0 0 c -0.35087,-0.57612 -0.52605,-1.50703 -0.52605,-2.79273 v 0 -12.505572 L 931.43283,57.21228 v 33.541345 0 c 0,1.2857 -0.17543,2.21661 -0.52604,2.79273 v 0 0 c -0.34886,0.57613 -0.91531,0.86442 -1.69944,0.86442 z m 55.7231,0 v 0 h -19.54378 v 0 c -0.78413,0 -1.35146,-0.28829 -1.70233,-0.86442 v 0 0 c -0.35055,-0.57612 -0.52605,-1.50703 -0.52605,-2.79273 v 0 -11.892879 0 c 0,-1.288555 0.1755,-2.221367 0.52605,-2.797488 v 0 0 c 0.35087,-0.576121 0.9182,-0.864419 1.70233,-0.864419 v 0 h 16.63622 v 0 c 0.53756,0 0.94048,-0.288297 1.20807,-0.864418 v 0 0 c 0.26796,-0.573271 0.40179,-1.266706 0.40179,-2.080305 v 0 0 c 0,-1.152716 -0.13383,-1.999562 -0.40179,-2.541011 v 0 0 c -0.26759,-0.541449 -0.67051,-0.846845 -1.20807,-0.916664 v 0 l -9.27764,-2.132549 v 0 c -2.88623,-0.677761 -5.20531,-2.23704 -6.95679,-4.678311 v 0 0 c -1.75325,-2.437945 -2.63017,-6.503563 -2.63017,-12.196853 v 0 -10.672247 0 c 0,-5.759784 1.13418,-10.179717 3.40183,-13.260754 v 0 0 c 2.26797,-3.083885 5.40182,-4.626064 9.40196,-4.626064 v 0 h 17.31824 v 0 c 0.78444,0 1.35178,0.288298 1.70233,0.864418 v 0 0 c 0.35087,0.576121 0.52605,1.507033 0.52605,2.792738 v 0 12.097112 0 c 0,1.288554 -0.17518,2.221367 -0.52605,2.797487 v 0 0 c -0.35055,0.573272 -0.91789,0.85967 -1.70233,0.85967 v 0 h -14.41068 v 0 c -0.53555,0 -0.94804,0.288298 -1.23702,0.864418 v 0 0 c -0.28905,0.576122 -0.43352,1.304703 -0.43352,2.184795 v 0 0 c 0,0.883417 0.14447,1.629097 0.43352,2.23704 v 0 0 c 0.28898,0.611268 0.70147,0.949911 1.23702,1.016405 v 0 l 9.21695,2.032808 v 0 c 2.88648,0.677762 5.21601,2.23704 6.98859,4.678311 v 0 0 c 1.77283,2.437945 2.65899,6.503563 2.65899,12.196853 v 0 10.672247 0 c 0,5.759783 -1.14456,10.179716 -3.43361,13.26075 v 0 0 c -2.28704,3.08389 -5.41051,4.62606 -9.37011,4.62606 z"
     style="white-space:pre;fill:#ff0000;stroke-width:0.37050387"
     id="path2" />
</svg>
